<svg width="22" height="24" viewBox="0 0 22 24" fill="none" xmlns="http://www.w3.org/2000/svg">
<g clip-path="url(#clip0_3637_33018)">
<path d="M5.68449 2.40334C6.69076 2.29195 7.04947 3.72489 6.16591 4.11002C4.86702 4.6764 4.31763 2.55437 5.68449 2.40334Z" fill="#3B0764"/>
<path d="M15.7434 2.40334C16.9856 2.26741 17.0932 4.14212 15.9057 4.20253C14.7182 4.26294 14.6238 2.52605 15.7434 2.40334Z" fill="#3B0764"/>
<path d="M12.6717 19.2927C13.0229 18.4186 13.3589 17.5313 13.5364 16.6006C12.4735 16.2532 11.9807 15.0543 12.5452 14.0688C13.0757 13.1456 14.335 12.9304 15.1638 13.6063C16.4306 14.6409 15.6376 16.7233 14.014 16.6704L13.9498 16.7421C13.812 17.3236 13.6572 17.9051 13.4552 18.4677C13.357 18.7396 13.0304 19.3418 12.9983 19.5533C12.9832 19.6496 13.3702 20.2046 13.4439 20.4028C14.4218 23.0101 11.2803 25.1359 9.20737 23.3254C7.22693 21.5941 8.81845 18.2921 11.4597 18.7622C11.9335 18.8472 12.2677 19.0586 12.6717 19.2946V19.2927Z" fill="#3B0764"/>
<path d="M16.4834 11.6731C17.2537 12.3017 17.9107 13.0966 18.4714 13.9235C18.7225 13.9424 18.9566 13.8819 19.2172 13.9008C22.1567 14.1085 22.5267 18.3488 19.7288 19.0775C16.474 19.9252 15.009 15.3319 18.0617 14.0575C17.5388 13.2778 16.8667 12.6284 16.2059 11.9714C15.9982 12.0506 15.834 12.2092 15.615 12.2904C14.1821 12.8134 12.8341 11.4729 13.3608 10.0362C14.014 8.25591 16.929 8.73733 16.7024 10.9311C16.6741 11.2049 16.5174 11.4088 16.4834 11.6731Z" fill="#3B0764"/>
<path d="M8.95627 4.70283C8.60512 5.57694 8.26907 6.46427 8.0916 7.39502C9.56985 7.85567 9.76619 9.9154 8.36157 10.6102C6.07718 11.7391 4.59327 7.93497 7.31377 7.34216C7.44404 7.31384 7.61584 7.3818 7.68003 7.25531C7.90847 6.27359 8.19732 5.29942 8.66931 4.40832C7.33832 2.85078 8.13125 0.428564 10.1683 0.047203C12.3338 -0.356814 14.0065 1.91059 12.9964 3.87215C12.347 5.13139 10.7932 5.61093 9.51321 5.02756C9.31687 4.93883 9.1545 4.78402 8.95627 4.70283Z" fill="#3B0764"/>
<path d="M3.56435 9.91352C4.07409 10.7215 4.76885 11.3804 5.45039 12.0393C6.69453 11.001 8.50506 11.8732 8.36913 13.5176C8.30682 14.2671 7.65738 14.9656 6.89654 15.0355C5.36543 15.1771 4.46867 13.7724 5.14266 12.4188C4.78395 11.9714 4.32707 11.5824 3.94949 11.1369C3.66441 10.8008 3.4001 10.4402 3.15656 10.0702C2.88847 10.057 2.64682 10.1099 2.36929 10.0872C-0.781661 9.8229 -0.751454 5.17293 2.23147 4.84254C5.38998 4.49139 6.43589 8.74489 3.56246 9.91352H3.56435Z" fill="#3B0764"/>
<path d="M5.37676 17.2085C6.33583 17.1971 7.26846 16.9177 8.18411 16.6629C7.91036 15.3375 9.03934 14.2576 10.359 14.6031C11.7485 14.9675 12.0676 16.8422 10.8914 17.671C10.0494 18.2638 8.81468 18.0127 8.3578 17.0801C7.89714 17.1575 7.4346 17.3236 6.97017 17.4199C6.41134 17.537 5.84874 17.5936 5.28614 17.6842C4.66501 19.3192 2.74121 19.963 1.26485 18.985C-0.430506 17.8617 -0.17186 15.211 1.68964 14.4049C3.6191 13.5685 5.69016 15.1393 5.37676 17.2066V17.2085Z" fill="#3B0764"/>
<path d="M16.2512 6.78711C15.2959 6.80787 14.3576 7.07596 13.4439 7.33272C13.7762 8.8053 12.2488 9.96826 10.9084 9.25463C9.9531 8.74489 9.73032 7.46298 10.4081 6.63041C11.1689 5.69588 12.7302 5.82993 13.2702 6.91548C13.3325 6.95136 14.4615 6.6153 14.6578 6.57566C15.194 6.46427 15.7358 6.40197 16.2795 6.33967C16.4287 6.29247 16.4155 6.12255 16.4872 6.00361C18.4129 2.77903 22.7872 5.475 21.1693 8.46547C19.7854 11.0217 15.783 9.66431 16.2512 6.78899V6.78711Z" fill="#3B0764"/>
<path d="M1.20066 11.1029C2.21259 11.0312 2.54676 12.466 1.60279 12.8228C0.269914 13.325 -0.105783 11.1973 1.20066 11.1029Z" fill="#3B0764"/>
<path d="M20.2744 11.101C21.6771 10.9632 21.4789 13.3193 20.0592 12.8341C19.1549 12.5264 19.3399 11.1935 20.2744 11.101Z" fill="#3B0764"/>
<path d="M6.09228 19.8006C7.06268 19.7232 7.43649 21.0919 6.56615 21.5016C5.23894 22.1246 4.72542 19.9082 6.09228 19.8006Z" fill="#3B0764"/>
<path d="M15.4262 19.8006C16.6231 19.7402 16.6628 21.613 15.4564 21.6055C14.3274 21.5998 14.2614 19.8591 15.4262 19.8006Z" fill="#3B0764"/>
</g>
<defs>
<clipPath id="clip0_3637_33018">
<rect width="21.6372" height="24" fill="white"/>
</clipPath>
</defs>
</svg>
