<svg width="40" height="40" viewBox="0 0 40 40" fill="none" xmlns="http://www.w3.org/2000/svg">
<g clip-path="url(#clip0_48_16011)">
<path d="M19.9696 5.79105C22.9248 5.79105 25.3428 3.58209 25.701 0.716418C23.8801 0.268657 21.9696 0 19.9696 0C17.9995 0 16.0592 0.268657 14.2383 0.716418C14.5965 3.58209 17.0144 5.79105 19.9696 5.79105Z" fill="#1D354F"/>
<path d="M0.745715 14.209C3.61139 14.5672 5.82034 16.9851 5.82034 19.9403C5.82034 22.8956 3.61139 25.3135 0.745715 25.6717C0.268103 23.8508 0.0292969 21.9105 0.0292969 19.9403C0.0292969 17.9702 0.268103 16.0299 0.745715 14.209Z" fill="#1D354F"/>
<path d="M11.0143 19.9405C11.0143 20.9461 10.1991 21.7614 9.1934 21.7614C8.18775 21.7614 7.3725 20.9461 7.3725 19.9405C7.3725 18.9348 8.18775 18.1196 9.1934 18.1196C10.1991 18.1196 11.0143 18.9348 11.0143 19.9405Z" fill="#1D354F"/>
<path d="M34.2084 19.9403C34.2084 22.8956 36.4174 25.3135 39.2831 25.6717C39.7607 23.8508 39.9995 21.9105 39.9995 19.9403C39.9995 17.9702 39.7607 16.0299 39.2831 14.209C36.4174 14.5672 34.2084 16.9851 34.2084 19.9403Z" fill="#1D354F"/>
<path d="M32.656 19.9405C32.656 20.9461 31.8408 21.7614 30.8351 21.7614C29.8295 21.7614 29.0142 20.9461 29.0142 19.9405C29.0142 18.9348 29.8295 18.1196 30.8351 18.1196C31.8408 18.1196 32.656 18.9348 32.656 19.9405Z" fill="#1D354F"/>
<path d="M19.9696 34.1791C17.0144 34.1791 14.5965 36.3881 14.2383 39.2538C16.0592 39.7314 17.9995 39.9702 19.9696 39.9702C21.9398 39.9702 23.8801 39.7314 25.701 39.2538C25.3428 36.3881 22.9248 34.1791 19.9696 34.1791Z" fill="#1D354F"/>
<path d="M21.7907 30.8357C21.7907 31.8413 20.9754 32.6566 19.9698 32.6566C18.9641 32.6566 18.1489 31.8413 18.1489 30.8357C18.1489 29.83 18.9641 29.0148 19.9698 29.0148C20.9754 29.0148 21.7907 29.83 21.7907 30.8357Z" fill="#1D354F"/>
<path d="M21.7907 9.1641C21.7907 10.1698 20.9754 10.985 19.9698 10.985C18.9641 10.985 18.1489 10.1698 18.1489 9.1641C18.1489 8.15845 18.9641 7.34321 19.9698 7.34321C20.9754 7.34321 21.7907 8.15845 21.7907 9.1641Z" fill="#1D354F"/>
<path d="M30.0295 29.9999C27.94 32.0894 27.7907 35.373 29.5519 37.6417C32.8952 35.6715 35.7012 32.8656 37.6415 29.5521C35.4027 27.7611 32.1191 27.9103 30.0295 29.9999Z" fill="#1D354F"/>
<path d="M29.4621 27.6119C29.4621 28.6176 28.6469 29.4328 27.6412 29.4328C26.6356 29.4328 25.8203 28.6176 25.8203 27.6119C25.8203 26.6063 26.6356 25.791 27.6412 25.791C28.6469 25.791 29.4621 26.6063 29.4621 27.6119Z" fill="#1D354F"/>
<path d="M9.9698 9.94051C12.0593 7.85096 12.2086 4.56738 10.4474 2.29872C7.10412 4.26887 4.29815 7.07484 2.35786 10.3883C4.59666 12.1793 7.88024 12.0002 9.9698 9.94051Z" fill="#1D354F"/>
<path d="M14.1485 12.2983C14.1485 13.304 13.3333 14.1192 12.3276 14.1192C11.322 14.1192 10.5067 13.304 10.5067 12.2983C10.5067 11.2927 11.322 10.4774 12.3276 10.4774C13.3333 10.4774 14.1485 11.2927 14.1485 12.2983Z" fill="#1D354F"/>
<path d="M29.9994 9.91066C32.089 12.0002 35.3725 12.1495 37.6412 10.3883C35.671 7.04499 32.8651 4.23902 29.5516 2.29872C27.7606 4.53753 27.9397 7.82111 29.9994 9.91066Z" fill="#1D354F"/>
<path d="M29.4621 12.2983C29.4621 13.304 28.6469 14.1192 27.6412 14.1192C26.6356 14.1192 25.8203 13.304 25.8203 12.2983C25.8203 11.2927 26.6356 10.4774 27.6412 10.4774C28.6469 10.4774 29.4621 11.2927 29.4621 12.2983Z" fill="#1D354F"/>
<path d="M9.93997 29.9704C7.85042 27.8808 4.56683 27.7316 2.29818 29.4928C4.26833 32.8361 7.0743 35.642 10.3877 37.6122C12.1788 35.3435 12.0295 32.06 9.93997 29.9704Z" fill="#1D354F"/>
<path d="M14.1485 27.6119C14.1485 28.6176 13.3333 29.4328 12.3276 29.4328C11.322 29.4328 10.5067 28.6176 10.5067 27.6119C10.5067 26.6063 11.322 25.791 12.3276 25.791C13.3333 25.791 14.1485 26.6063 14.1485 27.6119Z" fill="#1D354F"/>
</g>
<defs>
<clipPath id="clip0_48_16011">
<rect width="40" height="40" fill="white"/>
</clipPath>
</defs>
</svg>
