<?xml version="1.0" encoding="UTF-8"?>
<svg xmlns="http://www.w3.org/2000/svg" xmlns:xlink="http://www.w3.org/1999/xlink" viewBox="0 0 250.78 222.69">
  <defs>
    <style>
      .cls-1 {
        filter: url(#drop-shadow-2);
      }

      .cls-2, .cls-3, .cls-4 {
        fill: #010101;
      }

      .cls-5, .cls-6 {
        fill: #231f20;
      }

      .cls-7 {
        isolation: isolate;
      }

      .cls-8 {
        fill: #fff;
      }

      .cls-3, .cls-6 {
        opacity: .2;
      }

      .cls-9 {
        fill: #ece9e5;
      }

      .cls-10 {
        fill: #17181c;
      }

      .cls-11 {
        fill: #e4175f;
      }

      .cls-12 {
        fill: #e0e1e2;
      }

      .cls-4 {
        filter: url(#drop-shadow-1);
      }

      .cls-6 {
        mix-blend-mode: multiply;
      }
    </style>
    <filter id="drop-shadow-1" x="9.34" y="9.41" width="233.76" height="207.36" filterUnits="userSpaceOnUse">
      <feOffset dx=".7" dy=".7"/>
      <feGaussianBlur result="blur" stdDeviation="1.41"/>
      <feFlood flood-color="#231f20" flood-opacity=".35"/>
      <feComposite in2="blur" operator="in"/>
      <feComposite in="SourceGraphic"/>
    </filter>
    <filter id="drop-shadow-2" x="41.98" y="86.21" width="168.48" height="60.72" filterUnits="userSpaceOnUse">
      <feOffset dx=".7" dy=".7"/>
      <feGaussianBlur result="blur-2" stdDeviation="1.41"/>
      <feFlood flood-color="#231f20" flood-opacity=".2"/>
      <feComposite in2="blur-2" operator="in"/>
      <feComposite in="SourceGraphic"/>
    </filter>
  </defs>
  <g class="cls-7">
    <g id="Layer_2" data-name="Layer 2">
      <g id="Layer_1-2" data-name="Layer 1">
        <g>
          <g>
            <path class="cls-12" d="M250.78,48.12l-3.73-1.07c1.04-6.41.93-11.39.9-12.21l-7.4-3.8c-1.29-10.85-6.16-18.95-10.67-23.06l-8.9,3.68c-1.01-2.23-1.82-3.64-2.09-4.11l-9.04-6.35c-3.19-.62-6.46-.93-9.7-.93-15.89,0-28.66,7.49-36.09,13.21l-1.07-.16-.32-2.29c-2.62-.37-5.45-.47-8.05-.33l-.92-4.24c-3.35.06-6.46.24-9.33.51l-1.84-6.98c-22.03,1.5-41.85,5.88-59.05,13.02-8.05-5.64-15.26-6.66-17.78-6.85l-2.3-5.13c-7.15.74-13.35,3.21-18.4,6.13l-4.37-4.53c-4.5,2.47-8.26,5.45-11.4,8.61l-5.88-4.86C8.6,15.23.1,30.26,0,47.62c-.08,14.03,5.43,27.34,14.85,36.82-8.59,27.36-3.57,48.31-3.33,49.29l2.66.24c-.28,4.41-.05,7.43-.01,7.95l2.4.2c13.52,48.47,51.46,65.8,53.08,66.53l.51-.38c1.88,2.88,3.42,4.77,3.77,5.18l5.33-2.38c1.73,2.27,3.47,4.16,5.06,5.7h0c3.06,2.96,5.52,4.59,6.1,4.95l6.89-5.06c8.33,3.86,17.61,6.03,27.4,6.03,12.03,0,23.29-3.27,32.97-8.95l8.41.75c1.57-2.67,4.04-5.05,6.26-6.82l3.27,2.81c41.06-21.06,52.88-52.92,56.24-71.1l4.31.26c3.8-19.78,3.42-38.45-1.12-55.65,11.84-12.31,15.54-27.68,15.73-35.87Z"/>
            <path class="cls-4" d="M237.79,47.81c0-.23-.14-.43-.36-.49-.22-.06-.45.03-.57.23-1.01,1.71-3.06,3.71-4.45,4.96,2.81-8.47,2.56-17.14,2.55-17.23,0-.18-.11-.34-.27-.43-.16-.08-.35-.07-.51.03-2.18,1.45-5.01,2.83-6.34,3.45.67-13.84-6.4-20.46-6.71-20.74-.14-.13-.35-.17-.53-.09-.18.07-.3.24-.31.44-.73,15.28-4.6,24.12-6.58,27.69,1.76-18.14-5.91-31.29-6-31.42-.07-.12-.2-.21-.33-.23-2.38-.46-4.81-.7-7.23-.7-17.36,0-30.36,12.06-33.16,14.88-3.25-1.4-5.33-1.92-5.42-1.94-.97-.07-2.34.1-3.41.28,1.22-.91,2.8-1.62,2.83-1.63.2-.09.32-.31.29-.53-.03-.22-.2-.39-.42-.42-1.25-.18-2.55-.27-3.87-.27-4.09,0-7.55.83-9.51,1.43,2.77-2.94,6.63-4.63,6.68-4.65.22-.09.34-.33.29-.56-.05-.23-.27-.37-.5-.39-12.12.23-20.67,2.2-24.96,3.46,8.61-6.07,14.62-8.98,14.68-9.01.22-.1.33-.35.27-.58-.06-.23-.28-.37-.52-.37-27.9,1.9-48.14,8.53-62.06,15.34-8.23-8.76-16.34-9.17-16.7-9.18-.06,0-.12,0-.18.03-1.32.44-4.35,2.05-6.36,3.15,2.74-3.56,6.96-7.43,7.01-7.47.16-.15.21-.38.12-.57-.09-.2-.29-.31-.51-.29-11.02,1.14-19.37,8.45-22.8,11.97,2.09-5.28,5.57-11.15,5.61-11.22.12-.19.09-.44-.07-.6-.16-.16-.4-.2-.6-.09-11.48,6.3-16.76,17.63-18.68,22.86-.11-11.29,2.53-18.67,2.56-18.75.07-.2.01-.42-.15-.56-.16-.14-.39-.15-.58-.04-11.19,6.71-17.39,18.18-17.01,31.46.36,12.82,7.05,24.79,17.25,31.24-11.42,27.86-6.21,50.03-6.13,50.34.05.21.23.36.44.38.21.02.41-.1.5-.29.44-.98,1.82-2.6,3.08-3.61-1.52,7.6-1.04,13.71-1.03,13.78.02.24.21.44.46.46.24.02.47-.14.53-.38.17-.67.61-1.58.99-2.27,11.91,42.62,45.48,57.96,45.82,58.11.16.07.36.05.5-.05.14-.11.22-.29.2-.46-.19-1.5.19-3.41.53-4.74,2.58,7.35,7.71,13.55,7.76,13.62.14.17.38.23.59.14.2-.09.32-.31.29-.53-.53-3.59-.37-7.92-.2-10.53,4.22,11.02,12.68,16.47,12.77,16.52.08.05.17.08.27.08.1,0,.21-.03.3-.1.17-.12.24-.33.19-.53-.56-2.09-1.09-4.52-1.51-6.63,8.19,5,17.81,7.89,28.11,7.89s19.95-2.9,28.15-7.91c.4,2.28,1.08,4.17,1.13,4.29.07.18.23.31.42.32.19.02.38-.08.47-.24,4.51-7.65,12.42-12.75,14.88-14.21-.13,2.62-.78,4.61-.79,4.63-.06.19,0,.41.15.54.15.13.37.16.55.07,45.21-23.18,49.97-61.28,50.44-70.77,1.98,4.73,2.29,8.94,2.3,8.99.02.25.22.45.47.46.24.01.47-.16.52-.41,4.63-24.08,1.73-43.17-3.32-57.34,17.03-12.35,17.7-31.82,17.71-32.03Z"/>
            <path class="cls-9" d="M211.89,99.82c.21-.09.45-.02.59.16l3.47,4.53c.06.08,1.22,1.6,2.65,4.09-.75-15.47-4.87-27.09-8.27-34.24-1.26-2.65-2.66-5.21-4.18-7.65-.54,2.23-1.38,5.03-2.65,7.4l-1.34,2.51c-.1.19-.31.29-.52.26-.21-.04-.38-.2-.41-.41-.05-.31-5.39-31.21-40.09-43.27-9.47.02-15.94,3.74-16.01,3.78-.17.1-.4.09-.56-.04-.16-.12-.23-.33-.18-.53.46-1.68,1.16-3.27,1.6-4.2-7.38,1.01-12.8,4.33-12.86,4.37-.18.11-.4.1-.57-.03-.16-.13-.23-.35-.17-.54,1.03-3.31,3.25-6.51,4.41-8.04-16.34,1.75-29.77,10.24-29.91,10.33-.18.12-.41.1-.58-.03-.17-.13-.23-.36-.16-.56,2.31-6.45,7.78-11.98,10.24-14.24-40.67,5.52-66.59,43.23-66.85,43.61-.12.17-.33.25-.52.21-.2-.05-.35-.21-.38-.41-.4-2.73-.08-5.31.28-7.03-18.25,21.6-19.12,50.97-19.1,56.88,4.05-3.17,9.95-3.36,10.22-3.36.19,0,.36.1.45.26.09.17.08.37-.03.52-4.91,7.05-6.27,13.36-6.61,15.51.46-.15.94-.28,1.4-.38l3.88-.82c.22-.05.44.06.54.25.11.19.07.43-.08.59-3.15,3.21-3.83,6.23-3.93,6.78,7.47,27.5,24.56,42.84,34.55,49.76.98-6.02,3.7-9.78,3.82-9.94.12-.16.33-.24.52-.19.2.05.34.21.37.41.4,2.7,1.75,4.81,2.69,6.01-.23-5.75,2.62-10.73,2.75-10.96.11-.19.33-.28.54-.24.21.05.37.22.39.44.38,3.92,2.43,8.19,3.68,10.49.03-.85.13-1.71.29-2.57,0-.04.02-.08.03-.12,7.66,13.88,22.44,23.28,39.41,23.28,14.6,0,27.56-6.96,35.79-17.73.8,1.17-.16,5.92-.31,7.09,6.95-5.42,15.35-9.16,15.44-9.2.14-.06.29-.06.43.01.13.07.23.19.26.34l.43,1.91s.15.66.25,1.63c42.07-28.9,35.47-79.99,35.4-80.5l-.79-5.65c-.03-.22.09-.44.3-.53Z"/>
            <g>
              <g>
                <path class="cls-2" d="M57.92,179.97c-.15,0-.29-.06-.38-.18l-6.3-7.53c-.1-.12-.14-.29-.1-.44.04-.16.15-.28.3-.34,12.74-5.09,21.66-6.94,21.75-6.96.23-.05.47.08.56.29.09.22.02.47-.18.61-9.39,6.5-15.19,14.26-15.25,14.34-.09.12-.23.2-.39.2h-.01Z"/>
                <path class="cls-2" d="M52.38,173.95c-.15,0-.29-.06-.38-.18l-6.3-7.53c-.1-.12-.14-.29-.1-.44.04-.16.15-.28.3-.34,12.74-5.09,21.66-6.94,21.75-6.96.24-.05.47.08.56.29.09.22.02.47-.18.61-9.4,6.5-15.19,14.27-15.25,14.34-.09.12-.23.2-.39.2h-.02Z"/>
                <path class="cls-2" d="M46.84,167.92c-.15,0-.29-.06-.38-.18l-6.3-7.53c-.1-.12-.14-.29-.1-.44.04-.16.15-.28.3-.34,12.74-5.09,21.66-6.93,21.75-6.95.24-.05.47.08.56.29.09.22.02.47-.18.61-9.39,6.5-15.19,14.26-15.25,14.34-.09.12-.23.2-.39.2h-.01Z"/>
              </g>
              <g>
                <path class="cls-2" d="M191.65,179.97h-.02c-.15,0-.29-.08-.39-.2-.06-.08-5.86-7.84-15.25-14.34-.2-.14-.27-.39-.17-.61.09-.22.33-.34.56-.29.09.02,9.01,1.86,21.75,6.96.15.06.26.19.3.34.04.15,0,.32-.1.44l-6.3,7.53c-.09.11-.23.18-.38.18Z"/>
                <path class="cls-2" d="M197.2,173.95h-.01c-.15,0-.3-.08-.39-.2-.06-.08-5.86-7.85-15.25-14.34-.2-.14-.27-.39-.18-.61.09-.22.32-.34.56-.29.09.02,9.01,1.87,21.75,6.96.15.06.26.19.3.34.04.15,0,.32-.1.44l-6.3,7.53c-.1.11-.24.18-.38.18Z"/>
                <path class="cls-2" d="M202.74,167.92h-.01c-.15,0-.3-.08-.39-.2-.06-.08-5.86-7.84-15.25-14.34-.2-.14-.27-.39-.18-.61.09-.22.32-.34.56-.29.09.02,9.01,1.87,21.75,6.95.15.06.26.19.3.34.04.15,0,.32-.1.44l-6.3,7.53c-.1.11-.24.18-.38.18Z"/>
              </g>
            </g>
          </g>
          <path class="cls-5" d="M76.79,99.47h-10.67c-.16,0-.31-.08-.41-.21-.09-.13-.12-.3-.07-.45,2.31-6.8,5.84-11.62,7.44-13.59-2.98.36-5.23.95-5.26.96-.19.05-.4-.02-.53-.18-.12-.16-.14-.38-.04-.55,7.83-13.49,21.19-19.08,21.33-19.13.23-.09.5,0,.62.21.12.21.07.49-.12.64-5.46,4.27-8.73,10.34-9.84,12.62,2.61-.56,5.19-.58,5.51-.58.19,0,.38.11.46.29.08.18.06.38-.06.53-7.14,8.51-7.88,18.86-7.88,18.96-.02.26-.24.47-.5.47Z"/>
          <path class="cls-5" d="M69.11,151.17c-.2,0-.38-.12-.46-.31-.06-.13-5.56-13.53-1.55-28.61.05-.2.22-.34.42-.37.2-.02.4.07.5.25.01.02,1.19,2.03,3.04,4.39.26-2.52,1.17-8.43,4.34-14.87.07-.14.21-.25.37-.27.16-.03.32.03.44.14l7.54,7.54c.19.19.2.49.02.68-.07.08-6.86,7.91-7.83,18.98-.02.19-.14.36-.33.42-.18.07-.39.02-.52-.11-.09-.09-1.99-1.98-3.5-4.32-.83,2.39-2.78,8.93-1.99,15.75.03.06.04.13.04.2,0,.28-.24.49-.51.5h-.01Z"/>
          <rect class="cls-2" x="122.29" y="146.22" width="5" height="20.22"/>
          <path class="cls-2" d="M124.79,169.22c-17.91,0-36.04-8.96-36.22-9.05-.23-.11-.33-.38-.25-.62.09-.24.34-.37.59-.31.18.04,18.15,4.48,35.88,4.48s35.7-4.44,35.88-4.48c.25-.06.5.07.59.31.09.24-.02.51-.25.62-.18.09-18.31,9.05-36.22,9.05Z"/>
          <path class="cls-2" d="M104.54,163.49c-.84,3.63-4.46,5.9-8.09,5.06-3.63-.84-5.9-4.46-5.06-8.09"/>
          <path class="cls-2" d="M124.79,155.72c-.07,0-.14-.01-.2-.04l-19.76-9c-.18-.08-.29-.26-.29-.46,0-.39.23-9.5,20.25-9.5s20.25,9.11,20.25,9.5c0,.2-.11.38-.29.46l-19.76,9c-.06.03-.13.04-.2.04Z"/>
          <path class="cls-8" d="M135.12,142.03c-.09.99-1.76,1.65-3.74,1.48-1.98-.17-3.52-1.12-3.43-2.11.09-.99,1.76-1.65,3.74-1.48,1.98.17,3.52,1.12,3.43,2.11Z"/>
          <g class="cls-1">
            <path class="cls-2" d="M203.88,92.78c-1.08-.36-17.8-2.96-30.42-2.96s-20.54,1.08-28.04,2.59c-7.5,1.51-17.37,3.68-20.04,3.68s-12.54-2.16-20.04-3.68c-7.5-1.51-15.42-2.59-28.04-2.59s-29.34,2.59-30.42,2.96c-1.08.36-1.3.76-1.3,2.27v7.46c0,1.87,2.05,1.05,3.24,1.95,1.04.79,2.38,2.23,3.03,5.77.65,3.53,2.81,12.83,5.62,20.4,2.81,7.57,10.67,11.1,27.21,11.1s23.46-9.37,26.34-14.13c2.88-4.76,5.77-12.47,7.35-17.08,1.59-4.61,3.24-5.84,6.99-5.84s5.41,1.23,6.99,5.84c1.59,4.61,4.47,12.33,7.35,17.08,2.88,4.76,9.11,14.13,26.34,14.13s24.4-3.53,27.21-11.1c2.81-7.57,4.97-16.87,5.62-20.4.65-3.53,1.99-4.98,3.03-5.77,1.19-.9,3.24-.07,3.24-1.95v-7.46c0-1.51-.22-1.91-1.3-2.27Z"/>
            <g>
              <path class="cls-10" d="M84.27,94.94c-9.97,0-20.55.04-23.91,7.76-2.38,5.47.79,18.44,2.12,22.24,1.32,3.79,3.79,8.38,10.24,9.71,6.44,1.32,18,2.21,25.24-2.29,7.24-4.5,10.76-14.48,11.82-20.74,1.06-6.26,0-12.26-6.44-14.11-6.44-1.85-12.62-2.56-19.06-2.56Z"/>
              <path class="cls-11" d="M83.59,95.62c-9.97,0-20.55.04-23.91,7.76-2.38,5.47.79,18.44,2.12,22.24,1.32,3.79,3.79,8.38,10.24,9.71,6.44,1.32,18,2.21,25.24-2.29,7.24-4.5,10.76-14.48,11.82-20.74,1.06-6.26,0-12.26-6.44-14.11-6.44-1.85-12.62-2.56-19.06-2.56Z"/>
            </g>
            <g>
              <path class="cls-11" d="M167.21,94.94c9.97,0,20.55.04,23.91,7.76,2.38,5.47-.79,18.44-2.12,22.24-1.32,3.79-3.79,8.38-10.24,9.71-6.44,1.32-18,2.21-25.24-2.29-7.24-4.5-10.76-14.48-11.82-20.74-1.06-6.26,0-12.26,6.44-14.11,6.44-1.85,12.62-2.56,19.06-2.56Z"/>
              <path class="cls-11" d="M167.89,95.62c9.97,0,20.55.04,23.91,7.76,2.38,5.47-.79,18.44-2.12,22.24-1.32,3.79-3.79,8.38-10.24,9.71-6.44,1.32-18,2.21-25.24-2.29-7.24-4.5-10.76-14.48-11.82-20.74-1.06-6.26,0-12.26,6.44-14.11,6.44-1.85,12.62-2.56,19.06-2.56Z"/>
            </g>
            <path class="cls-3" d="M197.4,117.01c.72-2.89,1.25-5.33,1.52-6.79.65-3.53,1.99-4.98,3.03-5.77,1.19-.9,3.24-.07,3.24-1.95v-7.46c0-1.51-.22-1.91-1.3-2.27-1.08-.36-17.8-2.96-30.42-2.96s-20.54,1.08-28.04,2.59c-7.5,1.51-17.37,3.68-20.04,3.68s-12.54-2.16-20.04-3.68c-7.5-1.51-15.42-2.59-28.04-2.59s-29.34,2.59-30.42,2.96c-.3.1-.53.2-.71.33,15.6,9.75,40.75,18.11,70.29,22.69.75-1.95,1.4-3.79,1.92-5.29,1.59-4.61,3.24-5.84,6.99-5.84s5.41,1.23,6.99,5.84c.72,2.09,1.7,4.82,2.83,7.62,23.15,2.18,44.67,1.62,62.18-1.12Z"/>
          </g>
          <circle class="cls-6" cx="77.45" cy="111.38" r="10.5"/>
          <circle class="cls-6" cx="85.26" cy="121.89" r="10.5"/>
          <circle class="cls-6" cx="101.02" cy="104.64" r="5.25"/>
          <circle class="cls-6" cx="176.5" cy="111.38" r="10.5"/>
          <circle class="cls-6" cx="168.69" cy="121.89" r="10.5"/>
          <circle class="cls-6" cx="152.94" cy="104.64" r="5.25"/>
        </g>
      </g>
    </g>
  </g>
</svg>